{
  "accessors": [
    {
      "bufferView": 2,
      "componentType": 5126,
      "count": 1872,
      "max": [
        9.749584197998047,
        8.470535278320313,
        9.158756256103516
      ],
      "min": [
        -11.425491333007813,
        -12.482114791870117,
        -12.260127067565918
      ],
      "type": "VEC3"
    },
    {
      "bufferView": 2,
      "byteOffset": 22464,
      "componentType": 5126,
      "count": 1872,
      "max": [
        0.9133298993110657,
        0.9986353516578674,
        0.9980696439743042
      ],
      "min": [
        -0.9989020824432373,
        -0.9988978505134583,
        -0.9877749085426331
      ],
      "type": "VEC3"
    },
    {
      "bufferView": 1,
      "componentType": 5126,
      "count": 1872,
      "max": [
        0.9999000430107117,
        0.9999000430107117
      ],
      "min": [
        9.998001041822135e-05,
        9.998001041822135e-05
      ],
      "type": "VEC2"
    },
    {
      "bufferView": 1,
      "byteOffset": 14976,
      "componentType": 5126,
      "count": 1872,
      "max": [
        0.9989989995956421,
        0.9719719886779785
      ],
      "min": [
        0.0010010009864345193,
        0.0010010009864345193
      ],
      "type": "VEC2"
    },
    {
      "bufferView": 0,
      "componentType": 5125,
      "count": 2808,
      "type": "SCALAR"
    },
    {
      "bufferView": 2,
      "byteOffset": 44928,
      "componentType": 5126,
      "count": 1556,
      "max": [
        2.100224018096924,
        0.82442706823349,
        -0.608572244644165
      ],
      "min": [
        -2.099116802215576,
        -10.170472145080566,
        -8.483476638793945
      ],
      "type": "VEC3"
    },
    {
      "bufferView": 2,
      "byteOffset": 63600,
      "componentType": 5126,
      "count": 1556,
      "max": [
        1.0,
        0.953525960445404,
        0.9965001940727234
      ],
      "min": [
        -1.0,
        -0.9280762672424316,
        -0.9965001940727234
      ],
      "type": "VEC3"
    },
    {
      "bufferView": 1,
      "byteOffset": 29952,
      "componentType": 5126,
      "count": 1556,
      "max": [
        0.9962257742881775,
        0.9933585524559021
      ],
      "min": [
        0.00017291160474997014,
        0.00017291160474997014
      ],
      "type": "VEC2"
    },
    {
      "bufferView": 1,
      "byteOffset": 42400,
      "componentType": 5126,
      "count": 1556,
      "max": [
        0.9989989995956421,
        0.9989989995956421
      ],
      "min": [
        0.0010010009864345193,
        0.0010010009864345193
      ],
      "type": "VEC2"
    },
    {
      "bufferView": 0,
      "byteOffset": 11232,
      "componentType": 5125,
      "count": 2334,
      "type": "SCALAR"
    },
    {
      "bufferView": 2,
      "byteOffset": 82272,
      "componentType": 5126,
      "count": 23272,
      "max": [
        2.5919599533081055,
        1.6772947311401367,
        0.4366687536239624
      ],
      "min": [
        -2.5919599533081055,
        -3.0713613033294678,
        -4.692028999328613
      ],
      "type": "VEC3"
    },
    {
      "bufferView": 2,
      "byteOffset": 361536,
      "componentType": 5126,
      "count": 23272,
      "max": [
        1.0,
        0.999971866607666,
        0.9999629259109497
      ],
      "min": [
        -1.0,
        -0.9998453855514526,
        -0.9990324378013611
      ],
      "type": "VEC3"
    },
    {
      "bufferView": 3,
      "componentType": 5126,
      "count": 23272,
      "max": [
        0.9999971389770508,
        0.9988152384757996,
        0.999968409538269,
        1.0
      ],
      "min": [
        -0.9999987483024597,
        -0.9980751872062683,
        -0.9999564290046692,
        -1.0
      ],
      "type": "VEC4"
    },
    {
      "bufferView": 1,
      "byteOffset": 54848,
      "componentType": 5126,
      "count": 23272,
      "max": [
        0.9977426528930664,
        0.9993587136268616
      ],
      "min": [
        0.0020803746301680803,
        0.001275013666599989
      ],
      "type": "VEC2"
    },
    {
      "bufferView": 1,
      "byteOffset": 241024,
      "componentType": 5126,
      "count": 23272,
      "max": [
        0.9434434175491333,
        0.9719719886779785
      ],
      "min": [
        0.0010010009864345193,
        0.0010010009864345193
      ],
      "type": "VEC2"
    },
    {
      "bufferView": 1,
      "byteOffset": 427200,
      "componentType": 5126,
      "count": 23272,
      "max": [
        0.9977426528930664,
        0.9993587136268616
      ],
      "min": [
        0.0020803746301680803,
        0.001275013666599989
      ],
      "type": "VEC2"
    },
    {
      "bufferView": 1,
      "byteOffset": 613376,
      "componentType": 5126,
      "count": 23272,
      "max": [
        0.9977426528930664,
        0.9993587136268616
      ],
      "min": [
        0.0020803746301680803,
        0.001275013666599989
      ],
      "type": "VEC2"
    },
    {
      "bufferView": 0,
      "byteOffset": 20568,
      "componentType": 5125,
      "count": 34572,
      "type": "SCALAR"
    }
  ],
  "asset": {
    "extras": {
      "author": "LeahLindner (https://sketchfab.com/illation)",
      "license": "CC-BY-NC-ND-4.0 (http://creativecommons.org/licenses/by-nc-nd/4.0/)",
      "source": "https://sketchfab.com/3d-models/pbr-kabuto-samurai-helmet-13b3ab49b6bd4247be36b54ba1a56d8a",
      "title": "PBR Kabuto [Samurai Helmet]"
    },
    "generator": "Sketchfab-12.68.0",
    "version": "2.0"
  },
  "bufferViews": [
    {
      "buffer": 0,
      "byteLength": 158856,
      "name": "floatBufferViews",
      "target": 34963
    },
    {
      "buffer": 0,
      "byteLength": 799552,
      "byteOffset": 158856,
      "byteStride": 8,
      "name": "floatBufferViews",
      "target": 34962
    },
    {
      "buffer": 0,
      "byteLength": 640800,
      "byteOffset": 958408,
      "byteStride": 12,
      "name": "floatBufferViews",
      "target": 34962
    },
    {
      "buffer": 0,
      "byteLength": 372352,
      "byteOffset": 1599208,
      "byteStride": 16,
      "name": "floatBufferViews",
      "target": 34962
    }
  ],
  "buffers": [
    {
      "byteLength": 1971560,
      "uri": "scene.bin"
    }
  ],
  "images": [
    {
      "uri": "textures/Dust_baseColor.png"
    },
    {
      "uri": "textures/Material.001_baseColor.png"
    },
    {
      "uri": "textures/Material.001_metallicRoughness.png"
    },
    {
      "uri": "textures/Material_baseColor.png"
    },
    {
      "uri": "textures/Material_metallicRoughness.png"
    },
    {
      "uri": "textures/Material_normal.png"
    }
  ],
  "materials": [
    {
      "alphaMode": "BLEND",
      "doubleSided": true,
      "name": "Dust",
      "pbrMetallicRoughness": {
        "baseColorTexture": {
          "index": 0
        },
        "metallicFactor": 0.0,
        "roughnessFactor": 0.2
      }
    },
    {
      "name": "Material.001",
      "occlusionTexture": {
        "index": 2
      },
      "pbrMetallicRoughness": {
        "baseColorFactor": [
          0.37,
          0.37,
          0.37,
          1.0
        ],
        "baseColorTexture": {
          "index": 1
        },
        "metallicRoughnessTexture": {
          "index": 2
        },
        "roughnessFactor": 0.94
      }
    },
    {
      "name": "Material",
      "normalTexture": {
        "index": 5
      },
      "occlusionTexture": {
        "index": 4
      },
      "pbrMetallicRoughness": {
        "baseColorTexture": {
          "index": 3
        },
        "metallicRoughnessTexture": {
          "index": 4
        }
      }
    }
  ],
  "meshes": [
    {
      "name": "Helmet_Dust_0",
      "primitives": [
        {
          "attributes": {
            "NORMAL": 1,
            "POSITION": 0,
            "TEXCOORD_0": 2,
            "TEXCOORD_1": 3
          },
          "indices": 4,
          "material": 0,
          "mode": 4
        }
      ]
    },
    {
      "name": "Helmet_Material.001_0",
      "primitives": [
        {
          "attributes": {
            "NORMAL": 6,
            "POSITION": 5,
            "TEXCOORD_0": 7,
            "TEXCOORD_1": 8
          },
          "indices": 9,
          "material": 1,
          "mode": 4
        }
      ]
    },
    {
      "name": "Helmet_Material_0",
      "primitives": [
        {
          "attributes": {
            "NORMAL": 11,
            "POSITION": 10,
            "TANGENT": 12,
            "TEXCOORD_0": 13,
            "TEXCOORD_1": 14,
            "TEXCOORD_2": 15,
            "TEXCOORD_3": 16
          },
          "indices": 17,
          "material": 2,
          "mode": 4
        }
      ]
    }
  ],
  "nodes": [
    {
      "children": [
        1
      ],
      "matrix": [
        1.0,
        0.0,
        0.0,
        0.0,
        0.0,
        2.220446049250313e-16,
        -1.0,
        0.0,
        0.0,
        1.0,
        2.220446049250313e-16,
        0.0,
        0.0,
        0.0,
        0.0,
        1.0
      ],
      "name": "Sketchfab_model"
    },
    {
      "children": [
        2
      ],
      "matrix": [
        1.0,
        0.0,
        0.0,
        0.0,
        0.0,
        0.0,
        1.0,
        0.0,
        0.0,
        -1.0,
        0.0,
        0.0,
        0.0,
        0.0,
        0.0,
        1.0
      ],
      "name": "3ec37ebc8b424ad2adcd16fe4f641458.fbx"
    },
    {
      "children": [
        3
      ],
      "name": "RootNode"
    },
    {
      "children": [
        4,
        5,
        6
      ],
      "matrix": [
        100.0,
        -1.9465100354545563e-14,
        -1.1520456734425316e-14,
        0.0,
        1.1520460897189677e-14,
        87.66302859053371,
        -48.116456834800985,
        0.0,
        1.946509789080494e-14,
        48.116456834800985,
        87.66302859053371,
        0.0,
        274.637451171875,
        -94.61112976074219,
        243.00045776367188,
        1.0
      ],
      "name": "Helmet"
    },
    {
      "mesh": 0,
      "name": "Helmet_Dust_0"
    },
    {
      "mesh": 1,
      "name": "Helmet_Material.001_0"
    },
    {
      "mesh": 2,
      "name": "Helmet_Material_0"
    }
  ],
  "samplers": [
    {
      "magFilter": 9729,
      "minFilter": 9987,
      "wrapS": 10497,
      "wrapT": 10497
    }
  ],
  "scene": 0,
  "scenes": [
    {
      "name": "Sketchfab_Scene",
      "nodes": [
        0
      ]
    }
  ],
  "textures": [
    {
      "sampler": 0,
      "source": 0
    },
    {
      "sampler": 0,
      "source": 1
    },
    {
      "sampler": 0,
      "source": 2
    },
    {
      "sampler": 0,
      "source": 3
    },
    {
      "sampler": 0,
      "source": 4
    },
    {
      "sampler": 0,
      "source": 5
    }
  ]
}
